<?xml version="1.0" encoding="UTF-8"?>
<svg width="256px" height="240px" viewBox="0 0 256 240" version="1.1" xmlns="http://www.w3.org/2000/svg" xmlns:xlink="http://www.w3.org/1999/xlink" preserveAspectRatio="xMidYMid">
    <title>MetaMask</title>
    <g>
        <polygon fill="#E17726" points="250.066 -8.065e-14 146.768 81.102 164.159 35.255"></polygon>
        <polygon fill="#E27625" points="5.853 -8.065e-14 108.298 81.96 91.763 35.255"></polygon>
        <polygon fill="#E27625" points="214.341 173.242 188.025 212.304 244.687 227.333 261.039 174.477"></polygon>
        <polygon fill="#E27625" points="0 174.477 16.278 227.333 72.865 212.304 46.624 173.242"></polygon>
        <polygon fill="#E27625" points="70.147 105.047 55.774 127.54 111.649 129.933 109.877 69.145"></polygon>
        <polygon fill="#E27625" points="185.772 105.047 144.197 68.235 143.235 129.933 199.111 127.54"></polygon>
        <polygon fill="#E27625" points="73.731 212.304 108.298 196.775 78.392 174.984"></polygon>
        <polygon fill="#E27625" points="147.587 196.775 182.153 212.304 177.492 174.984"></polygon>
        <polygon fill="#D5BFB2" points="182.153 212.304 147.587 196.775 150.242 217.659 149.88 226.826"></polygon>
        <polygon fill="#D5BFB2" points="73.731 212.304 106.004 226.826 105.716 217.659 108.298 196.775"></polygon>
        <polygon fill="#233447" points="106.596 159.961 77.666 152.251 97.233 143.09"></polygon>
        <polygon fill="#233447" points="149.289 159.961 158.652 143.09 178.293 152.251"></polygon>
        <polygon fill="#CC6228" points="73.731 212.304 78.54 173.242 46.624 174.477"></polygon>
        <polygon fill="#CC6228" points="177.46 173.242 182.269 212.304 209.376 174.477"></polygon>
        <polygon fill="#CC6228" points="199.111 127.54 143.235 129.933 149.289 159.961 158.652 143.09 178.293 152.251"></polygon>
        <polygon fill="#CC6228" points="77.666 152.251 97.233 143.09 106.596 159.961 112.649 129.933 55.774 127.54"></polygon>
        <polygon fill="#E27525" points="55.774 127.54 78.392 174.984 77.666 152.251"></polygon>
        <polygon fill="#E27525" points="178.293 152.251 177.492 174.984 199.111 127.54"></polygon>
        <polygon fill="#E27525" points="112.649 129.933 106.596 159.961 114.113 192.345 115.654 149.193"></polygon>
        <polygon fill="#E27525" points="143.235 129.933 140.261 149.103 141.728 192.345 149.289 159.961"></polygon>
        <polygon fill="#F5841F" points="149.289 159.961 141.728 192.345 147.587 196.775 177.492 174.984 178.293 152.251"></polygon>
        <polygon fill="#F5841F" points="77.666 152.251 78.392 174.984 108.298 196.775 114.113 192.345 106.596 159.961"></polygon>
        <polygon fill="#C0AC9D" points="149.88 226.826 150.242 217.659 147.732 215.39 108.153 215.39 105.716 217.659 106.004 226.826 73.731 212.304 83.994 220.5 107.859 236.98 147.957 236.98 171.896 220.5 182.153 212.304"></polygon>
        <polygon fill="#161616" points="147.587 196.775 141.728 192.345 115.654 192.345 109.877 196.775 108.298 217.659 110.736 215.39 145.149 215.39 147.659 217.659"></polygon>
        <polygon fill="#763E1A" points="250.555 81.102 256 41.878 250.066 -8.065e-14 147.587 74.151 184.061 105.047 244.175 119.872 256 106.952 250.962 103.181 258.7 95.578 252.694 90.592 260.431 84.259"></polygon>
        <polygon fill="#763E1A" points="0 41.878 5.445 81.102 0 84.259 7.81 90.592 1.732 95.578 9.469 103.181 4.431 106.952 16.256 119.872 76.371 105.047 112.844 74.151 9.85 -8.065e-14"></polygon>
        <polygon fill="#F5841F" points="244.175 119.872 184.061 105.047 199.111 127.54 177.492 174.984 209.376 174.477 261.039 174.477"></polygon>
        <polygon fill="#F5841F" points="76.371 105.047 16.256 119.872 -0 174.477 46.624 174.477 78.392 174.984 55.774 127.54"></polygon>
        <polygon fill="#F5841F" points="143.235 129.933 147.587 74.151 164.159 35.255 91.763 35.255 108.298 74.151 112.649 129.933 114.04 149.283 114.113 192.345 141.728 192.345 141.801 149.283"></polygon>
    </g>
</svg>

